<?xml version="1.0" encoding="UTF-8"?>
<svg xmlns="http://www.w3.org/2000/svg" id="Layer_1" data-name="Layer 1" viewBox="0 0 275.12 63.94">
  <defs>
    <style>
      .cls-1 {
        fill: #ef443a;
      }

      .cls-2 {
        fill: #7b996e;
      }
    </style>
  </defs>
  <path class="cls-2" d="M36.91,63.94s-3.51-4.27-11.7-5.66c-7.97-1.86-17.62-9.65-20.09-20.57-2.87-10.83,1.96-22.14,8.13-27.43,6.13-5.56,11.87-6.42,11.75-6.49.14.17-5.56,1.16-11.52,6.74-6.02,5.32-10.6,16.49-7.7,27.03,2.53,10.64,11.97,18.09,19.68,19.82,1.85.28,3.5.73,4.94,1.24,5.44,1.93,7.54,4.42,7.54,4.42l-1.02.91Z"></path>
  <path class="cls-2" d="M28.33,63.94s3.51-4.27,11.7-5.66c7.97-1.86,17.62-9.65,20.1-20.57,2.87-10.83-1.96-22.14-8.13-27.43-6.13-5.56-11.87-6.42-11.75-6.5-.14.17,5.55,1.16,11.52,6.74,6.02,5.32,10.6,16.49,7.7,27.03-2.52,10.64-11.97,18.09-19.68,19.82-1.85.28-3.5.73-4.94,1.24-5.44,1.93-7.54,4.42-7.54,4.42l1.02.91Z"></path>
  <path class="cls-2" d="M22.85,51.52s2.23.77,2.97,2.55c.92,2.23.53,4.09.53,4.09,0,0-2.24-1.16-2.99-2.37-1.05-1.69-.51-4.27-.51-4.27"></path>
  <path class="cls-2" d="M18.93,61.29s2.26.69,3.9-.31c2.06-1.26,2.83-3,2.83-3,0,0-2.49-.38-3.81.16-1.85.75-2.92,3.15-2.92,3.15"></path>
  <path class="cls-2" d="M19.37,49.6s2.02,1.12,2.44,2.97c.51,2.31-.19,4.04-.19,4.04,0,0-1.96-1.5-2.48-2.79-.73-1.81.23-4.21.23-4.21"></path>
  <path class="cls-2" d="M13.93,58.37s2.06,1.05,3.82.36c2.2-.86,3.24-2.41,3.24-2.41,0,0-2.34-.79-3.7-.49-1.91.41-3.36,2.54-3.36,2.54"></path>
  <path class="cls-2" d="M16.25,47.11s1.76,1.43,1.85,3.28c.1,2.31-.87,3.86-.87,3.86,0,0-1.64-1.78-1.92-3.12-.39-1.87.94-4.02.94-4.02"></path>
  <path class="cls-2" d="M9.5,54.65s1.81,1.37,3.63,1c2.27-.46,3.54-1.78,3.54-1.78,0,0-2.13-1.16-3.49-1.11-1.91.07-3.67,1.88-3.67,1.88"></path>
  <path class="cls-2" d="M13.6,44.09s1.46,1.68,1.22,3.48c-.29,2.25-1.49,3.58-1.49,3.58,0,0-1.28-2-1.32-3.34-.06-1.88,1.59-3.72,1.59-3.72"></path>
  <path class="cls-2" d="M5.81,50.22s1.51,1.63,3.33,1.58c2.27-.06,3.72-1.11,3.72-1.11,0,0-1.85-1.48-3.18-1.66-1.86-.26-3.87,1.19-3.87,1.19"></path>
  <path class="cls-2" d="M11.5,40.67s1.12,1.87.59,3.56c-.67,2.12-2.05,3.2-2.05,3.2,0,0-.89-2.15-.7-3.45.26-1.82,2.17-3.32,2.17-3.32"></path>
  <path class="cls-2" d="M2.93,45.25s1.18,1.83,2.94,2.09c2.2.33,3.78-.44,3.78-.44,0,0-1.54-1.74-2.79-2.15-1.75-.57-3.94.49-3.94.49"></path>
  <path class="cls-2" d="M10.05,36.94s.77,1.99-.04,3.54c-1,1.94-2.53,2.74-2.53,2.74,0,0-.49-2.22-.09-3.45.56-1.71,2.66-2.83,2.66-2.83"></path>
  <path class="cls-2" d="M1,39.91s.83,1.97,2.48,2.52c2.07.69,3.72.22,3.72.22,0,0-1.19-1.94-2.32-2.55-1.59-.84-3.88-.19-3.88-.19"></path>
  <path class="cls-2" d="M9.25,33.04s.4,2.05-.64,3.41c-1.3,1.69-2.9,2.22-2.9,2.22,0,0-.1-2.23.5-3.34.83-1.56,3.05-2.28,3.05-2.28"></path>
  <path class="cls-2" d="M.01,34.37s.47,2.04,1.97,2.86c1.87,1.02,3.55.84,3.55.84,0,0-.82-2.08-1.81-2.85-1.4-1.08-3.71-.85-3.71-.85"></path>
  <path class="cls-2" d="M9.14,29.04s.04,2.05-1.2,3.18c-1.54,1.42-3.18,1.64-3.18,1.64,0,0,.28-2.17,1.05-3.14,1.07-1.36,3.33-1.69,3.33-1.69"></path>
  <path class="cls-2" d="M0,28.75s.1,2.05,1.41,3.09c1.63,1.31,3.28,1.42,3.28,1.42,0,0-.43-2.15-1.26-3.06-1.16-1.28-3.44-1.45-3.44-1.45"></path>
  <path class="cls-2" d="M9.71,24.95s-.31,1.99-1.7,2.87c-1.73,1.1-3.35,1.05-3.35,1.05,0,0,.64-2.05,1.54-2.85,1.26-1.13,3.5-1.06,3.5-1.06"></path>
  <path class="cls-2" d="M.94,23.11s-.25,1.99.84,3.23c1.36,1.54,2.93,1.93,2.93,1.93,0,0-.05-2.15-.7-3.17-.9-1.44-3.07-1.99-3.07-1.99"></path>
  <path class="cls-2" d="M11,20.96s-.64,1.86-2.13,2.48c-1.86.77-3.41.44-3.41.44,0,0,.97-1.86,1.98-2.49,1.41-.88,3.56-.43,3.56-.43"></path>
  <path class="cls-2" d="M2.84,17.69s-.58,1.88.26,3.26c1.05,1.72,2.5,2.36,2.5,2.36,0,0,.31-2.08-.13-3.18-.63-1.54-2.63-2.44-2.63-2.44"></path>
  <path class="cls-2" d="M12.97,17.26s-.93,1.69-2.47,2.03c-1.92.43-3.36-.16-3.36-.16,0,0,1.25-1.64,2.33-2.07,1.51-.61,3.51.19,3.51.19"></path>
  <path class="cls-2" d="M5.66,12.72s-.88,1.72-.3,3.19c.72,1.83,2.01,2.7,2.01,2.7,0,0,.66-1.95.41-3.09-.34-1.59-2.12-2.8-2.12-2.8"></path>
  <path class="cls-2" d="M15.59,13.97s-1.19,1.47-2.73,1.54c-1.93.09-3.22-.72-3.22-.72,0,0,1.49-1.36,2.6-1.6,1.56-.33,3.35.78,3.35.78"></path>
  <path class="cls-2" d="M9.3,8.34s-1.14,1.51-.83,3.02c.38,1.89,1.48,2.95,1.48,2.95,0,0,.97-1.77.92-2.91-.06-1.6-1.57-3.07-1.57-3.07"></path>
  <path class="cls-2" d="M18.7,11.2s-1.4,1.22-2.9,1.02c-1.88-.24-2.98-1.25-2.98-1.25,0,0,1.67-1.06,2.78-1.1,1.56-.05,3.1,1.33,3.1,1.33"></path>
  <path class="cls-2" d="M13.6,4.7s-1.36,1.26-1.32,2.78c.05,1.89.93,3.1.93,3.1,0,0,1.23-1.55,1.39-2.65.22-1.55-.99-3.22-.99-3.22"></path>
  <path class="cls-2" d="M22.24,9.04s-1.56.94-2.97.49c-1.77-.56-2.67-1.71-2.67-1.71,0,0,1.79-.74,2.87-.59,1.52.22,2.77,1.81,2.77,1.81"></path>
  <path class="cls-2" d="M18.41,1.9s-1.52.99-1.75,2.46c-.28,1.83.37,3.15.37,3.15,0,0,1.45-1.28,1.79-2.32.47-1.46-.41-3.28-.41-3.28"></path>
  <path class="cls-2" d="M26.03,7.54s-1.66.64-2.95-.03c-1.61-.84-2.28-2.11-2.28-2.11,0,0,1.85-.41,2.87-.08,1.43.47,2.36,2.22,2.36,2.22"></path>
  <path class="cls-2" d="M23.55,0s-1.64.69-2.1,2.07c-.58,1.72-.18,3.1-.18,3.1,0,0,1.62-.99,2.12-1.94.7-1.33.16-3.24.16-3.24"></path>
  <path class="cls-2" d="M23.62,4.25s1.23.69,2.32.32c1.36-.47,2.03-1.38,2.03-1.38,0,0-1.4-.54-2.24-.4-1.17.2-2.11,1.46-2.11,1.46"></path>
  <path class="cls-2" d="M42.39,51.52s-2.23.77-2.97,2.55c-.92,2.23-.53,4.09-.53,4.09,0,0,2.24-1.16,2.99-2.37,1.05-1.69.51-4.27.51-4.27"></path>
  <path class="cls-2" d="M46.31,61.29s-2.26.69-3.9-.31c-2.06-1.26-2.83-3-2.83-3,0,0,2.49-.38,3.81.16,1.85.75,2.93,3.15,2.93,3.15"></path>
  <path class="cls-2" d="M45.87,49.6s-2.03,1.12-2.44,2.97c-.51,2.31.19,4.04.19,4.04,0,0,1.96-1.5,2.48-2.79.73-1.81-.23-4.21-.23-4.21"></path>
  <path class="cls-2" d="M51.31,58.37s-2.06,1.05-3.82.36c-2.2-.86-3.24-2.41-3.24-2.41,0,0,2.34-.79,3.7-.49,1.91.41,3.36,2.54,3.36,2.54"></path>
  <path class="cls-2" d="M48.99,47.11s-1.76,1.43-1.85,3.28c-.1,2.31.87,3.86.87,3.86,0,0,1.64-1.78,1.92-3.12.4-1.87-.94-4.02-.94-4.02"></path>
  <path class="cls-2" d="M55.74,54.65s-1.81,1.37-3.63,1c-2.27-.46-3.54-1.78-3.54-1.78,0,0,2.13-1.16,3.49-1.11,1.91.07,3.67,1.88,3.67,1.88"></path>
  <path class="cls-2" d="M51.64,44.09s-1.46,1.68-1.22,3.48c.29,2.25,1.49,3.58,1.49,3.58,0,0,1.28-2,1.32-3.34.06-1.88-1.59-3.72-1.59-3.72"></path>
  <path class="cls-2" d="M59.43,50.22s-1.51,1.63-3.33,1.58c-2.27-.06-3.72-1.11-3.72-1.11,0,0,1.86-1.48,3.18-1.66,1.86-.26,3.87,1.19,3.87,1.19"></path>
  <path class="cls-2" d="M53.74,40.67s-1.12,1.87-.59,3.56c.67,2.12,2.05,3.2,2.05,3.2,0,0,.89-2.15.71-3.45-.26-1.82-2.17-3.32-2.17-3.32"></path>
  <path class="cls-2" d="M62.3,45.25s-1.19,1.83-2.94,2.09c-2.2.33-3.78-.44-3.78-.44,0,0,1.54-1.74,2.79-2.15,1.75-.57,3.94.49,3.94.49"></path>
  <path class="cls-2" d="M55.19,36.94s-.77,1.99.04,3.54c1,1.94,2.52,2.74,2.52,2.74,0,0,.49-2.22.1-3.44-.56-1.71-2.66-2.84-2.66-2.84"></path>
  <path class="cls-2" d="M64.23,39.91s-.83,1.97-2.48,2.52c-2.06.69-3.72.22-3.72.22,0,0,1.19-1.94,2.32-2.55,1.6-.84,3.88-.19,3.88-.19"></path>
  <path class="cls-2" d="M55.99,33.04s-.4,2.05.64,3.41c1.3,1.69,2.9,2.22,2.9,2.22,0,0,.1-2.23-.49-3.34-.83-1.56-3.05-2.28-3.05-2.28"></path>
  <path class="cls-2" d="M65.22,34.37s-.47,2.04-1.97,2.86c-1.87,1.02-3.55.84-3.55.84,0,0,.82-2.08,1.81-2.85,1.4-1.08,3.71-.85,3.71-.85"></path>
  <path class="cls-2" d="M56.1,29.04s-.04,2.05,1.2,3.18c1.54,1.42,3.18,1.64,3.18,1.64,0,0-.28-2.17-1.05-3.14-1.07-1.36-3.33-1.69-3.33-1.69"></path>
  <path class="cls-2" d="M65.24,28.75s-.1,2.05-1.41,3.09c-1.63,1.31-3.28,1.42-3.28,1.42,0,0,.43-2.15,1.26-3.06,1.16-1.28,3.44-1.45,3.44-1.45"></path>
  <path class="cls-2" d="M55.53,24.95s.31,1.99,1.7,2.87c1.73,1.1,3.35,1.05,3.35,1.05,0,0-.64-2.05-1.54-2.85-1.26-1.13-3.5-1.06-3.5-1.06"></path>
  <path class="cls-2" d="M64.3,23.11s.25,1.99-.84,3.23c-1.36,1.54-2.93,1.93-2.93,1.93,0,0,.05-2.15.7-3.17.9-1.44,3.07-1.99,3.07-1.99"></path>
  <path class="cls-2" d="M54.24,20.96s.64,1.86,2.13,2.48c1.86.77,3.41.44,3.41.44,0,0-.97-1.86-1.98-2.49-1.41-.88-3.56-.43-3.56-.43"></path>
  <path class="cls-2" d="M62.4,17.69s.58,1.88-.26,3.26c-1.05,1.72-2.5,2.36-2.5,2.36,0,0-.31-2.08.13-3.18.63-1.54,2.63-2.44,2.63-2.44"></path>
  <path class="cls-2" d="M52.26,17.26s.93,1.69,2.47,2.03c1.92.43,3.36-.16,3.36-.16,0,0-1.25-1.64-2.33-2.07-1.51-.61-3.51.19-3.51.19"></path>
  <path class="cls-2" d="M59.58,12.72s.88,1.72.3,3.19c-.72,1.83-2.01,2.7-2.01,2.7,0,0-.66-1.95-.41-3.09.34-1.59,2.12-2.8,2.12-2.8"></path>
  <path class="cls-2" d="M49.65,13.97s1.19,1.47,2.73,1.54c1.93.09,3.22-.72,3.22-.72,0,0-1.49-1.36-2.6-1.6-1.56-.33-3.35.78-3.35.78"></path>
  <path class="cls-2" d="M55.94,8.34s1.14,1.51.83,3.02c-.38,1.89-1.48,2.95-1.48,2.95,0,0-.97-1.77-.92-2.91.06-1.6,1.57-3.07,1.57-3.07"></path>
  <path class="cls-2" d="M46.53,11.2s1.4,1.22,2.9,1.02c1.88-.24,2.99-1.25,2.99-1.25,0,0-1.67-1.06-2.78-1.1-1.56-.05-3.1,1.33-3.1,1.33"></path>
  <path class="cls-2" d="M51.64,4.7s1.36,1.26,1.32,2.78c-.04,1.89-.93,3.1-.93,3.1,0,0-1.23-1.55-1.39-2.65-.22-1.55.99-3.22.99-3.22"></path>
  <path class="cls-2" d="M43,9.04s1.56.94,2.97.49c1.77-.56,2.67-1.71,2.67-1.71,0,0-1.79-.74-2.87-.59-1.52.22-2.77,1.81-2.77,1.81"></path>
  <path class="cls-2" d="M46.83,1.9s1.52.99,1.75,2.46c.28,1.83-.37,3.15-.37,3.15,0,0-1.45-1.28-1.79-2.32-.47-1.46.41-3.28.41-3.28"></path>
  <path class="cls-2" d="M39.21,7.54s1.66.64,2.95-.03c1.61-.84,2.28-2.11,2.28-2.11,0,0-1.85-.41-2.87-.08-1.43.47-2.36,2.22-2.36,2.22"></path>
  <path class="cls-2" d="M41.69,0s1.64.69,2.1,2.07c.58,1.72.18,3.1.18,3.1,0,0-1.62-.99-2.12-1.94-.7-1.33-.16-3.24-.16-3.24"></path>
  <path class="cls-2" d="M41.61,4.25s-1.23.69-2.32.32c-1.36-.47-2.03-1.38-2.03-1.38,0,0,1.4-.54,2.24-.4,1.17.2,2.11,1.46,2.11,1.46"></path>
  <path class="cls-1" d="M32.62,15.97l-15.44,26.75h30.89l-15.44-26.75ZM32.62,18.2l13.52,23.42h-27.03l13.52-23.42ZM32.62,20.42l-11.59,20.08h23.18l-11.59-20.08ZM32.62,22.65l9.67,16.74h-19.33l9.67-16.74Z"></path>
  <path class="cls-1" d="M32.62,20.42l-11.59,20.08h23.18l-11.59-20.08ZM32.62,22.65l9.67,16.74h-19.33l9.67-16.74Z"></path>
  <path class="cls-1" d="M32.62,20.42l-11.59,20.08h23.18l-11.59-20.08ZM32.62,22.65l9.67,16.74h-19.33l9.67-16.74Z"></path>
  <path class="cls-1" d="M29.32,10.27l-15.44,26.75h30.89l-15.44-26.75ZM29.32,12.5l13.52,23.41H15.8l13.52-23.41ZM29.32,14.72l-11.59,20.08h23.18l-11.59-20.08ZM29.32,16.95l9.67,16.74h-19.33l9.67-16.74Z"></path>
  <path class="cls-1" d="M29.32,14.72l-11.59,20.08h23.18l-11.59-20.08ZM29.32,16.95l9.67,16.74h-19.33l9.67-16.74Z"></path>
  <path class="cls-1" d="M35.92,10.27l-15.44,26.75h30.89l-15.44-26.75ZM35.92,12.5l13.52,23.41h-27.03l13.52-23.41ZM35.92,14.72l-11.59,20.08h23.18l-11.59-20.08ZM35.92,16.95l9.67,16.74h-19.33l9.67-16.74Z"></path>
  <path class="cls-1" d="M35.92,14.72l-11.59,20.08h23.18l-11.59-20.08ZM35.92,16.95l9.67,16.74h-19.33l9.67-16.74Z"></path>
  <path class="cls-1" d="M35.92,14.72l-11.59,20.08h23.18l-11.59-20.08ZM35.92,16.95l9.67,16.74h-19.33l9.67-16.74Z"></path>
  <path class="cls-2" d="M78.22,31.62l7.89-13.94h3.13l7.99,13.94h-3.64l-1.67-3.05h-8.84l-1.62,3.05s-3.23,0-3.23,0ZM84.46,26.06h6.11l-3.01-5.67-3.1,5.67Z"></path>
  <path class="cls-2" d="M114.31,20.17h-10.13v8.82h10.13v-3.1h-5.3v-2.37h8.45v4.8c0,1.27-.24,2.14-.71,2.6s-1.39.69-2.74.69h-9.61c-1.35,0-2.27-.23-2.74-.69-.47-.46-.71-1.33-.71-2.6v-7.35c0-1.27.24-2.13.71-2.6.47-.47,1.39-.7,2.74-.7h9.61c1.34,0,2.25.23,2.73.69.48.46.72,1.28.72,2.48v.32l-3.15.57s0-1.56,0-1.56Z"></path>
  <path class="cls-2" d="M124.32,31.62v-13.94h11.92c1.11,0,1.91.21,2.41.64.5.43.74,1.11.74,2.06v3.27c0,.94-.25,1.63-.74,2.06s-1.3.65-2.41.65h-1.82l6.44,5.26h-4.66l-5.62-5.26h-3.07v5.26s-3.19,0-3.19,0ZM134.81,20.09h-7.29v3.88h7.29c.56,0,.95-.08,1.15-.24.21-.16.31-.45.31-.86v-1.68c0-.4-.1-.69-.31-.85-.21-.16-.59-.24-1.15-.24"></path>
  <path class="cls-2" d="M145.69,20.98c0-1.27.24-2.13.71-2.6.48-.47,1.39-.7,2.74-.7h10.26c1.35,0,2.27.23,2.74.7.48.47.71,1.33.71,2.6v7.35c0,1.27-.24,2.14-.71,2.6-.48.46-1.39.69-2.74.69h-10.26c-1.35,0-2.27-.23-2.74-.69-.47-.46-.71-1.33-.71-2.6v-7.35ZM148.93,29h10.69v-8.82h-10.69v8.82Z"></path>
  <path class="cls-2" d="M180.12,31.62v-13.94h2.62l6.57,8.43,6.42-8.43h2.6v13.94h-3.01v-8.61c0-.17.01-.38.03-.63.02-.25.05-.54.09-.86-.18.36-.33.66-.46.89s-.25.42-.35.57l-5.24,6.96h-.65l-5.25-6.99c-.19-.26-.36-.51-.49-.75-.14-.23-.25-.46-.34-.68.03.29.05.55.06.79.01.24.02.47.02.69v8.61s-2.63,0-2.63,0Z"></path>
  <polygon class="cls-2" points="205.15 31.62 205.15 17.68 219.42 17.68 219.42 20.06 208.4 20.06 208.4 23.17 214.84 23.17 214.84 25.54 208.4 25.54 208.4 29 219.55 29 219.55 31.62 205.15 31.62"></polygon>
  <polygon class="cls-2" points="232.03 20.17 232.03 31.62 228.79 31.62 228.79 20.17 222.39 20.17 222.39 17.68 238.45 17.68 238.45 20.17 232.03 20.17"></polygon>
  <path class="cls-2" d="M237.93,31.62l7.89-13.94h3.13l7.99,13.94h-3.64l-1.68-3.05h-8.84l-1.62,3.05s-3.23,0-3.23,0ZM244.16,26.06h6.11l-3.01-5.67-3.1,5.67Z"></path>
  <polygon class="cls-2" points="261.41 31.62 261.41 17.68 264.66 17.68 264.66 29 275.12 29 275.12 31.62 261.41 31.62"></polygon>
  <path class="cls-1" d="M99.44,41.66l.89,3.42.34,1.37c.08-.35.15-.68.22-1,.07-.32.14-.64.21-.97l.65-2.83h1l-1.57,5.96h-1.02l-1.28-4.95-1.26,4.95h-1.01l-1.58-5.96h1.01l.65,2.83c.08.33.15.65.22.98.07.33.14.65.22.98l1.24-4.79h1.07Z"></path>
  <polygon class="cls-1" points="108.54 47.62 107.55 47.62 107.55 44.9 104.75 44.9 104.75 47.62 103.76 47.62 103.76 41.66 104.75 41.66 104.75 44.04 107.55 44.04 107.55 41.66 108.54 41.66 108.54 47.62"></polygon>
  <polygon class="cls-1" points="114.59 47.62 110.08 47.62 110.08 41.66 114.45 41.66 114.45 42.51 111.08 42.51 111.08 44.12 114.24 44.12 114.24 44.99 111.08 44.99 111.08 46.76 114.59 46.76 114.59 47.62"></polygon>
  <path class="cls-1" d="M120.96,47.62h-1.08l-.54-1.52c-.11-.3-.26-.53-.44-.68-.19-.15-.44-.23-.75-.23h-1.26v2.43h-.99v-5.96h2.64c.32,0,.61.03.88.08.27.06.5.15.69.28.19.13.34.3.45.52.11.22.16.48.16.8,0,.42-.11.76-.34,1.02-.23.26-.55.44-.96.51.22.08.4.22.55.41.15.19.28.43.39.74l.6,1.59ZM116.89,44.34h1.55c.22,0,.41-.02.57-.05s.29-.09.39-.17c.1-.08.18-.17.22-.3.05-.12.07-.27.07-.44,0-.31-.09-.54-.28-.7-.19-.15-.48-.23-.87-.23h-1.65s0,1.88,0,1.88Z"></path>
  <polygon class="cls-1" points="126.68 47.62 122.17 47.62 122.17 41.66 126.54 41.66 126.54 42.51 123.17 42.51 123.17 44.12 126.33 44.12 126.33 44.99 123.17 44.99 123.17 46.76 126.68 46.76 126.68 47.62"></polygon>
  <polygon class="cls-1" points="136.04 42.52 134.16 42.52 134.16 47.62 133.17 47.62 133.17 42.52 131.3 42.52 131.3 41.66 136.04 41.66 136.04 42.52"></polygon>
  <path class="cls-1" d="M142.17,47.62h-1.08l-.54-1.52c-.11-.3-.26-.53-.44-.68-.19-.15-.44-.23-.75-.23h-1.26v2.43h-.99v-5.96h2.65c.32,0,.61.03.88.08.27.06.49.15.69.28s.34.3.45.52c.11.22.16.48.16.8,0,.42-.11.76-.34,1.02-.23.26-.55.44-.96.51.22.08.4.22.55.41.15.19.28.43.39.74l.6,1.59ZM138.1,44.34h1.55c.22,0,.41-.02.57-.05s.29-.09.39-.17c.1-.08.18-.17.23-.3.05-.12.07-.27.07-.44,0-.31-.09-.54-.28-.7-.19-.15-.48-.23-.87-.23h-1.65v1.88h0Z"></path>
  <path class="cls-1" d="M145.77,47.72c-.35,0-.65-.03-.9-.1s-.47-.15-.65-.26c-.18-.11-.32-.25-.43-.41-.11-.16-.2-.34-.26-.53-.06-.19-.1-.4-.12-.62-.02-.22-.03-.45-.03-.69v-3.45h.99v3.45c0,.32.03.6.08.82.05.22.14.4.26.54.11.14.26.23.43.29.18.06.38.09.63.09s.43-.03.61-.08c.17-.05.32-.15.44-.28.12-.13.21-.31.26-.54.06-.22.09-.51.09-.85v-3.45h.99v3.45c0,.21,0,.42-.02.63-.02.21-.05.41-.11.6-.05.19-.13.38-.24.54-.1.17-.25.31-.42.44-.18.12-.4.22-.65.29-.26.07-.57.11-.94.11"></path>
  <path class="cls-1" d="M151.97,47.72c-.41,0-.77-.05-1.08-.14-.31-.09-.57-.23-.79-.4-.21-.18-.38-.39-.5-.64-.12-.25-.18-.54-.19-.86h.95c.02.2.07.37.16.52.09.15.21.28.35.38.14.1.31.18.49.23.19.05.39.08.6.08s.39-.02.56-.06c.17-.04.31-.11.44-.19.12-.08.21-.18.28-.29.07-.11.1-.24.1-.38,0-.15-.03-.28-.1-.38-.07-.1-.18-.19-.33-.27-.15-.08-.35-.15-.58-.21-.24-.06-.52-.13-.85-.2-.31-.07-.59-.15-.82-.25-.23-.1-.42-.21-.58-.35-.15-.13-.27-.29-.34-.46-.07-.17-.11-.38-.11-.6,0-.25.05-.48.16-.69.11-.21.26-.38.45-.53s.43-.26.7-.34c.27-.08.58-.12.91-.12s.66.04.94.12c.28.08.52.2.72.35.2.15.36.35.47.57.11.23.18.48.19.77h-.96c-.07-.65-.52-.98-1.35-.98-.2,0-.37.02-.53.06s-.29.1-.4.17c-.11.07-.19.16-.25.26-.06.1-.09.21-.09.33,0,.1.02.19.07.26.04.08.12.15.22.22.1.07.24.13.4.19.17.06.37.12.62.17.21.05.42.1.63.15.2.05.39.11.57.17.18.06.34.14.49.22.15.08.28.19.38.31s.19.26.25.42c.06.16.09.35.09.57,0,.27-.06.52-.17.74-.12.22-.28.41-.48.57-.21.16-.45.28-.74.37-.29.09-.6.13-.94.13"></path>
  <polygon class="cls-1" points="159.88 42.52 158 42.52 158 47.62 157.01 47.62 157.01 42.52 155.14 42.52 155.14 41.66 159.88 41.66 159.88 42.52"></polygon>
  <rect class="cls-1" x="164.81" y="41.66" width=".99" height="5.96"></rect>
  <path class="cls-1" d="M169.68,47.72c-.41,0-.77-.05-1.08-.14-.31-.09-.57-.23-.79-.4-.21-.18-.38-.39-.5-.64-.12-.25-.18-.54-.19-.86h.94c.02.2.07.37.16.52.09.15.21.28.35.38.14.1.31.18.49.23.19.05.39.08.6.08s.39-.02.56-.06c.17-.04.32-.11.44-.19.12-.08.21-.18.28-.29.07-.11.1-.24.1-.38,0-.15-.04-.28-.1-.38-.07-.1-.18-.19-.33-.27-.15-.08-.35-.15-.58-.21-.24-.06-.52-.13-.86-.2-.31-.07-.59-.15-.82-.25-.23-.1-.42-.21-.57-.35-.15-.13-.27-.29-.34-.46-.07-.17-.11-.38-.11-.6,0-.25.05-.48.16-.69.1-.21.26-.38.45-.53.2-.15.43-.26.7-.34.27-.08.58-.12.91-.12s.66.04.94.12c.28.08.52.2.72.35.2.15.36.35.47.57.11.23.18.48.19.77h-.96c-.07-.65-.52-.98-1.35-.98-.2,0-.37.02-.53.06-.16.04-.29.1-.4.17s-.19.16-.25.26c-.06.1-.09.21-.09.33,0,.1.02.19.07.26.04.08.12.15.22.22s.24.13.4.19c.17.06.37.12.62.17.21.05.42.1.63.15s.4.11.57.17.34.14.49.22c.15.08.28.19.38.31.11.12.19.26.25.42.06.16.09.35.09.57,0,.27-.06.52-.17.74-.12.22-.28.41-.48.57-.21.16-.45.28-.74.37-.29.09-.6.13-.94.13"></path>
  <polygon class="cls-1" points="181.36 42.52 179.48 42.52 179.48 47.62 178.49 47.62 178.49 42.52 176.62 42.52 176.62 41.66 181.36 41.66 181.36 42.52"></polygon>
  <polygon class="cls-1" points="187.22 47.62 186.23 47.62 186.23 44.9 183.43 44.9 183.43 47.62 182.44 47.62 182.44 41.66 183.43 41.66 183.43 44.04 186.23 44.04 186.23 41.66 187.22 41.66 187.22 47.62"></polygon>
  <polygon class="cls-1" points="193.27 47.62 188.76 47.62 188.76 41.66 193.13 41.66 193.13 42.51 189.76 42.51 189.76 44.12 192.92 44.12 192.92 44.99 189.76 44.99 189.76 46.76 193.27 46.76 193.27 47.62"></polygon>
  <path class="cls-1" d="M200.89,47.72c-.42,0-.8-.07-1.14-.2-.34-.14-.63-.34-.88-.62-.26-.28-.45-.61-.57-.98s-.18-.8-.18-1.28c0-.94.25-1.69.76-2.25.26-.28.55-.49.89-.62.34-.13.72-.2,1.14-.2.33,0,.63.04.91.12s.53.21.76.38c.26.19.45.41.58.65.13.24.21.52.24.83h-1.01c-.02-.18-.07-.33-.15-.48-.08-.14-.18-.26-.31-.36-.13-.1-.28-.18-.45-.23s-.36-.08-.57-.08c-.27,0-.51.05-.73.15-.22.1-.41.24-.56.44-.15.19-.27.43-.35.7-.08.28-.13.6-.13.95s.04.68.12.95c.08.28.2.51.35.7.15.19.34.34.55.44.21.1.46.15.73.15.21,0,.41-.03.58-.08.17-.05.32-.13.45-.24s.23-.23.31-.38c.08-.15.13-.33.15-.52h1c-.06.66-.32,1.17-.77,1.53-.44.36-1.01.53-1.71.53"></path>
  <path class="cls-1" d="M207.29,41.56c.42,0,.81.07,1.16.22.35.15.65.35.9.62.25.27.45.59.58.97.14.38.21.8.21,1.26s-.07.88-.2,1.26-.33.7-.57.97c-.25.27-.55.48-.9.63-.35.15-.74.22-1.17.22s-.82-.07-1.17-.22c-.35-.15-.65-.35-.9-.62-.25-.27-.44-.6-.58-.97-.13-.38-.2-.8-.2-1.26s.07-.88.21-1.26.33-.7.59-.97c.25-.27.55-.48.9-.62.35-.15.73-.22,1.16-.22M207.27,46.88c.28,0,.53-.05.76-.16.23-.11.42-.26.58-.45.16-.2.29-.43.37-.71.09-.28.13-.58.13-.92s-.04-.64-.13-.91-.21-.51-.37-.71c-.16-.2-.35-.35-.58-.46-.23-.11-.48-.16-.76-.16s-.53.05-.76.16c-.23.11-.42.26-.59.46-.16.2-.29.43-.38.71s-.13.58-.13.92.04.65.13.92c.09.28.21.51.38.71.16.2.35.35.58.45.23.1.48.16.75.16"></path>
  <path class="cls-1" d="M217.33,47.62h-.93v-2.9c0-.34,0-.68,0-1.01,0-.33,0-.67,0-1l-1.57,4.91h-.89l-1.6-4.91c0,.33,0,.67.01,1,0,.34,0,.67,0,1.01v2.9h-.94v-5.96h1.44l1.53,4.72,1.49-4.72h1.45v5.96h0Z"></path>
  <path class="cls-1" d="M224.77,47.62h-.93v-2.9c0-.34,0-.68,0-1.01,0-.33,0-.67,0-1l-1.57,4.91h-.89l-1.6-4.91c0,.33,0,.67.01,1,0,.34,0,.67,0,1.01v2.9h-.94v-5.96h1.44l1.53,4.72,1.49-4.72h1.45v5.96h0Z"></path>
  <rect class="cls-1" x="226.4" y="41.66" width=".99" height="5.96"></rect>
  <polygon class="cls-1" points="233.29 42.52 231.4 42.52 231.4 47.62 230.41 47.62 230.41 42.52 228.54 42.52 228.54 41.66 233.29 41.66 233.29 42.52"></polygon>
  <path class="cls-1" d="M240.26,47.62h-.93v-2.9c0-.34,0-.68,0-1.01,0-.33,0-.67,0-1l-1.57,4.91h-.89l-1.6-4.91c0,.33,0,.67.01,1,0,.34,0,.67,0,1.01v2.9h-.93v-5.96h1.44l1.53,4.72,1.48-4.72h1.45v5.96h0Z"></path>
  <polygon class="cls-1" points="246.31 47.62 241.81 47.62 241.81 41.66 246.17 41.66 246.17 42.51 242.8 42.51 242.8 44.12 245.96 44.12 245.96 44.99 242.8 44.99 242.8 46.76 246.31 46.76 246.31 47.62"></polygon>
  <path class="cls-1" d="M252.4,47.62h-1l-2.86-4.47c0,.44,0,.87.01,1.3,0,.43,0,.86,0,1.3v1.87h-.94v-5.96h1.01l2.85,4.47c0-.44,0-.87,0-1.3,0-.43,0-.86,0-1.3v-1.87h.93v5.96h0Z"></path>
  <polygon class="cls-1" points="258.23 42.52 256.35 42.52 256.35 47.62 255.36 47.62 255.36 42.52 253.49 42.52 253.49 41.66 258.23 41.66 258.23 42.52"></polygon>
</svg>
