<?xml version="1.0" encoding="UTF-8"?>
<svg xmlns="http://www.w3.org/2000/svg" id="Layer_1" data-name="Layer 1" viewBox="0 0 202.74 115.1">
  <defs>
    <style>
      .cls-1 {
        fill: #fff;
      }
    </style>
  </defs>
  <g>
    <path class="cls-1" d="M106.22,69.09s-3.51-4.27-11.7-5.66c-7.97-1.86-17.62-9.65-20.09-20.57-2.87-10.83,1.96-22.14,8.13-27.43,6.13-5.56,11.87-6.42,11.75-6.49.14.17-5.56,1.16-11.52,6.74-6.02,5.32-10.6,16.49-7.7,27.03,2.53,10.64,11.97,18.09,19.68,19.82,1.85.28,3.5.73,4.94,1.24,5.44,1.93,7.54,4.42,7.54,4.42l-1.02.91h0Z"></path>
    <path class="cls-1" d="M97.64,69.09s3.51-4.27,11.7-5.66c7.97-1.86,17.62-9.65,20.1-20.57,2.87-10.83-1.96-22.14-8.13-27.43-6.13-5.56-11.87-6.42-11.75-6.5-.14.17,5.55,1.16,11.52,6.74,6.02,5.32,10.6,16.49,7.7,27.03-2.52,10.64-11.97,18.09-19.68,19.82-1.85.28-3.5.73-4.94,1.24-5.44,1.93-7.54,4.42-7.54,4.42,0,0,1.02.91,1.02.91Z"></path>
    <path class="cls-1" d="M92.16,56.67s2.23.77,2.97,2.55c.92,2.23.53,4.09.53,4.09,0,0-2.24-1.16-2.99-2.37-1.05-1.69-.51-4.27-.51-4.27"></path>
    <path class="cls-1" d="M88.24,66.44s2.26.69,3.9-.31c2.06-1.26,2.83-3,2.83-3,0,0-2.49-.38-3.81.16-1.85.75-2.92,3.15-2.92,3.15"></path>
    <path class="cls-1" d="M88.68,54.75s2.02,1.12,2.44,2.97c.51,2.31-.19,4.04-.19,4.04,0,0-1.96-1.5-2.48-2.79-.73-1.81.23-4.21.23-4.21"></path>
    <path class="cls-1" d="M83.24,63.52s2.06,1.05,3.82.36c2.2-.86,3.24-2.41,3.24-2.41,0,0-2.34-.79-3.7-.49-1.91.41-3.36,2.54-3.36,2.54"></path>
    <path class="cls-1" d="M85.56,52.26s1.76,1.43,1.85,3.28c.1,2.31-.87,3.86-.87,3.86,0,0-1.64-1.78-1.92-3.12-.39-1.87.94-4.02.94-4.02"></path>
    <path class="cls-1" d="M78.81,59.8s1.81,1.37,3.63,1c2.27-.46,3.54-1.78,3.54-1.78,0,0-2.13-1.16-3.49-1.11-1.91.07-3.67,1.88-3.67,1.88"></path>
    <path class="cls-1" d="M82.91,49.24s1.46,1.68,1.22,3.48c-.29,2.25-1.49,3.58-1.49,3.58,0,0-1.28-2-1.32-3.34-.06-1.88,1.59-3.72,1.59-3.72"></path>
    <path class="cls-1" d="M75.12,55.37s1.51,1.63,3.33,1.58c2.27-.06,3.72-1.11,3.72-1.11,0,0-1.85-1.48-3.18-1.66-1.86-.26-3.87,1.19-3.87,1.19"></path>
    <path class="cls-1" d="M80.81,45.82s1.12,1.87.59,3.56c-.67,2.12-2.05,3.2-2.05,3.2,0,0-.89-2.15-.7-3.45.26-1.82,2.17-3.32,2.17-3.32"></path>
    <path class="cls-1" d="M72.24,50.4s1.18,1.83,2.94,2.09c2.2.33,3.78-.44,3.78-.44,0,0-1.54-1.74-2.79-2.15-1.75-.57-3.94.49-3.94.49"></path>
    <path class="cls-1" d="M79.36,42.09s.77,1.99-.04,3.54c-1,1.94-2.53,2.74-2.53,2.74,0,0-.49-2.22-.09-3.45.56-1.71,2.66-2.83,2.66-2.83"></path>
    <path class="cls-1" d="M70.31,45.06s.83,1.97,2.48,2.52c2.07.69,3.72.22,3.72.22,0,0-1.19-1.94-2.32-2.55-1.59-.84-3.88-.19-3.88-.19"></path>
    <path class="cls-1" d="M78.56,38.19s.4,2.05-.64,3.41c-1.3,1.69-2.9,2.22-2.9,2.22,0,0-.1-2.23.5-3.34.83-1.56,3.05-2.28,3.05-2.28"></path>
    <path class="cls-1" d="M69.32,39.52s.47,2.04,1.97,2.86c1.87,1.02,3.55.84,3.55.84,0,0-.82-2.08-1.81-2.85-1.4-1.08-3.71-.85-3.71-.85"></path>
    <path class="cls-1" d="M78.45,34.19s.04,2.05-1.2,3.18c-1.54,1.42-3.18,1.64-3.18,1.64,0,0,.28-2.17,1.05-3.14,1.07-1.36,3.33-1.69,3.33-1.69"></path>
    <path class="cls-1" d="M69.31,33.9s.1,2.05,1.41,3.09c1.63,1.31,3.28,1.42,3.28,1.42,0,0-.43-2.15-1.26-3.06-1.16-1.28-3.44-1.45-3.44-1.45"></path>
    <path class="cls-1" d="M79.02,30.1s-.31,1.99-1.7,2.87c-1.73,1.1-3.35,1.05-3.35,1.05,0,0,.64-2.05,1.54-2.85,1.26-1.13,3.5-1.06,3.5-1.06"></path>
    <path class="cls-1" d="M70.25,28.26s-.25,1.99.84,3.23c1.36,1.54,2.93,1.93,2.93,1.93,0,0-.05-2.15-.7-3.17-.9-1.44-3.07-1.99-3.07-1.99"></path>
    <path class="cls-1" d="M80.31,26.11s-.64,1.86-2.13,2.48c-1.86.77-3.41.44-3.41.44,0,0,.97-1.86,1.98-2.49,1.41-.88,3.56-.43,3.56-.43"></path>
    <path class="cls-1" d="M72.15,22.84s-.58,1.88.26,3.26c1.05,1.72,2.5,2.36,2.5,2.36,0,0,.31-2.08-.13-3.18-.63-1.54-2.63-2.44-2.63-2.44"></path>
    <path class="cls-1" d="M82.28,22.41s-.93,1.69-2.47,2.03c-1.92.43-3.36-.16-3.36-.16,0,0,1.25-1.64,2.33-2.07,1.51-.61,3.51.19,3.51.19"></path>
    <path class="cls-1" d="M74.97,17.87s-.88,1.72-.3,3.19c.72,1.83,2.01,2.7,2.01,2.7,0,0,.66-1.95.41-3.09-.34-1.59-2.12-2.8-2.12-2.8"></path>
    <path class="cls-1" d="M84.9,19.12s-1.19,1.47-2.73,1.54c-1.93.09-3.22-.72-3.22-.72,0,0,1.49-1.36,2.6-1.6,1.56-.33,3.35.78,3.35.78"></path>
    <path class="cls-1" d="M78.61,13.49s-1.14,1.51-.83,3.02c.38,1.89,1.48,2.95,1.48,2.95,0,0,.97-1.77.92-2.91-.06-1.6-1.57-3.07-1.57-3.07"></path>
    <path class="cls-1" d="M88.01,16.35s-1.4,1.22-2.9,1.02c-1.88-.24-2.98-1.25-2.98-1.25,0,0,1.67-1.06,2.78-1.1,1.56-.05,3.1,1.33,3.1,1.33"></path>
    <path class="cls-1" d="M82.91,9.85s-1.36,1.26-1.32,2.78c.05,1.89.93,3.1.93,3.1,0,0,1.23-1.55,1.39-2.65.22-1.55-.99-3.22-.99-3.22"></path>
    <path class="cls-1" d="M91.55,14.19s-1.56.94-2.97.49c-1.77-.56-2.67-1.71-2.67-1.71,0,0,1.79-.74,2.87-.59,1.52.22,2.77,1.81,2.77,1.81"></path>
    <path class="cls-1" d="M87.72,7.05s-1.52.99-1.75,2.46c-.28,1.83.37,3.15.37,3.15,0,0,1.45-1.28,1.79-2.32.47-1.46-.41-3.28-.41-3.28"></path>
    <path class="cls-1" d="M95.34,12.69s-1.66.64-2.95-.03c-1.61-.84-2.28-2.11-2.28-2.11,0,0,1.85-.41,2.87-.08,1.43.47,2.36,2.22,2.36,2.22"></path>
    <path class="cls-1" d="M92.86,5.15s-1.64.69-2.1,2.07c-.58,1.72-.18,3.1-.18,3.1,0,0,1.62-.99,2.12-1.94.7-1.33.16-3.24.16-3.24"></path>
    <path class="cls-1" d="M92.93,9.4s1.23.69,2.32.32c1.36-.47,2.03-1.38,2.03-1.38,0,0-1.4-.54-2.24-.4-1.17.2-2.11,1.46-2.11,1.46"></path>
    <path class="cls-1" d="M111.7,56.67s-2.23.77-2.97,2.55c-.92,2.23-.53,4.09-.53,4.09,0,0,2.24-1.16,2.99-2.37,1.05-1.69.51-4.27.51-4.27"></path>
    <path class="cls-1" d="M115.62,66.44s-2.26.69-3.9-.31c-2.06-1.26-2.83-3-2.83-3,0,0,2.49-.38,3.81.16,1.85.75,2.93,3.15,2.93,3.15"></path>
    <path class="cls-1" d="M115.18,54.75s-2.03,1.12-2.44,2.97c-.51,2.31.19,4.04.19,4.04,0,0,1.96-1.5,2.48-2.79.73-1.81-.23-4.21-.23-4.21"></path>
    <path class="cls-1" d="M120.62,63.52s-2.06,1.05-3.82.36c-2.2-.86-3.24-2.41-3.24-2.41,0,0,2.34-.79,3.7-.49,1.91.41,3.36,2.54,3.36,2.54"></path>
    <path class="cls-1" d="M118.3,52.26s-1.76,1.43-1.85,3.28c-.1,2.31.87,3.86.87,3.86,0,0,1.64-1.78,1.92-3.12.4-1.87-.94-4.02-.94-4.02"></path>
    <path class="cls-1" d="M125.05,59.8s-1.81,1.37-3.63,1c-2.27-.46-3.54-1.78-3.54-1.78,0,0,2.13-1.16,3.49-1.11,1.91.07,3.67,1.88,3.67,1.88"></path>
    <path class="cls-1" d="M120.95,49.24s-1.46,1.68-1.22,3.48c.29,2.25,1.49,3.58,1.49,3.58,0,0,1.28-2,1.32-3.34.06-1.88-1.59-3.72-1.59-3.72"></path>
    <path class="cls-1" d="M128.74,55.37s-1.51,1.63-3.33,1.58c-2.27-.06-3.72-1.11-3.72-1.11,0,0,1.86-1.48,3.18-1.66,1.86-.26,3.87,1.19,3.87,1.19"></path>
    <path class="cls-1" d="M123.05,45.82s-1.12,1.87-.59,3.56c.67,2.12,2.05,3.2,2.05,3.2,0,0,.89-2.15.71-3.45-.26-1.82-2.17-3.32-2.17-3.32"></path>
    <path class="cls-1" d="M131.61,50.4s-1.19,1.83-2.94,2.09c-2.2.33-3.78-.44-3.78-.44,0,0,1.54-1.74,2.79-2.15,1.75-.57,3.94.49,3.94.49"></path>
    <path class="cls-1" d="M124.5,42.09s-.77,1.99.04,3.54c1,1.94,2.52,2.74,2.52,2.74,0,0,.49-2.22.1-3.44-.56-1.71-2.66-2.84-2.66-2.84"></path>
    <path class="cls-1" d="M133.54,45.06s-.83,1.97-2.48,2.52c-2.06.69-3.72.22-3.72.22,0,0,1.19-1.94,2.32-2.55,1.6-.84,3.88-.19,3.88-.19"></path>
    <path class="cls-1" d="M125.3,38.19s-.4,2.05.64,3.41c1.3,1.69,2.9,2.22,2.9,2.22,0,0,.1-2.23-.49-3.34-.83-1.56-3.05-2.28-3.05-2.28"></path>
    <path class="cls-1" d="M134.53,39.52s-.47,2.04-1.97,2.86c-1.87,1.02-3.55.84-3.55.84,0,0,.82-2.08,1.81-2.85,1.4-1.08,3.71-.85,3.71-.85"></path>
    <path class="cls-1" d="M125.41,34.19s-.04,2.05,1.2,3.18c1.54,1.42,3.18,1.64,3.18,1.64,0,0-.28-2.17-1.05-3.14-1.07-1.36-3.33-1.69-3.33-1.69"></path>
    <path class="cls-1" d="M134.55,33.9s-.1,2.05-1.41,3.09c-1.63,1.31-3.28,1.42-3.28,1.42,0,0,.43-2.15,1.26-3.06,1.16-1.28,3.44-1.45,3.44-1.45"></path>
    <path class="cls-1" d="M124.84,30.1s.31,1.99,1.7,2.87c1.73,1.1,3.35,1.05,3.35,1.05,0,0-.64-2.05-1.54-2.85-1.26-1.13-3.5-1.06-3.5-1.06"></path>
    <path class="cls-1" d="M133.61,28.26s.25,1.99-.84,3.23c-1.36,1.54-2.93,1.93-2.93,1.93,0,0,.05-2.15.7-3.17.9-1.44,3.07-1.99,3.07-1.99"></path>
    <path class="cls-1" d="M123.55,26.11s.64,1.86,2.13,2.48c1.86.77,3.41.44,3.41.44,0,0-.97-1.86-1.98-2.49-1.41-.88-3.56-.43-3.56-.43"></path>
    <path class="cls-1" d="M131.71,22.84s.58,1.88-.26,3.26c-1.05,1.72-2.5,2.36-2.5,2.36,0,0-.31-2.08.13-3.18.63-1.54,2.63-2.44,2.63-2.44"></path>
    <path class="cls-1" d="M121.57,22.41s.93,1.69,2.47,2.03c1.92.43,3.36-.16,3.36-.16,0,0-1.25-1.64-2.33-2.07-1.51-.61-3.51.19-3.51.19"></path>
    <path class="cls-1" d="M128.89,17.87s.88,1.72.3,3.19c-.72,1.83-2.01,2.7-2.01,2.7,0,0-.66-1.95-.41-3.09.34-1.59,2.12-2.8,2.12-2.8"></path>
    <path class="cls-1" d="M118.96,19.12s1.19,1.47,2.73,1.54c1.93.09,3.22-.72,3.22-.72,0,0-1.49-1.36-2.6-1.6-1.56-.33-3.35.78-3.35.78"></path>
    <path class="cls-1" d="M125.25,13.49s1.14,1.51.83,3.02c-.38,1.89-1.48,2.95-1.48,2.95,0,0-.97-1.77-.92-2.91.06-1.6,1.57-3.07,1.57-3.07"></path>
    <path class="cls-1" d="M115.84,16.35s1.4,1.22,2.9,1.02c1.88-.24,2.99-1.25,2.99-1.25,0,0-1.67-1.06-2.78-1.1-1.56-.05-3.1,1.33-3.1,1.33"></path>
    <path class="cls-1" d="M120.95,9.85s1.36,1.26,1.32,2.78c-.04,1.89-.93,3.1-.93,3.1,0,0-1.23-1.55-1.39-2.65-.22-1.55.99-3.22.99-3.22"></path>
    <path class="cls-1" d="M112.31,14.19s1.56.94,2.97.49c1.77-.56,2.67-1.71,2.67-1.71,0,0-1.79-.74-2.87-.59-1.52.22-2.77,1.81-2.77,1.81"></path>
    <path class="cls-1" d="M116.14,7.05s1.52.99,1.75,2.46c.28,1.83-.37,3.15-.37,3.15,0,0-1.45-1.28-1.79-2.32-.47-1.46.41-3.28.41-3.28"></path>
    <path class="cls-1" d="M108.52,12.69s1.66.64,2.95-.03c1.61-.84,2.28-2.11,2.28-2.11,0,0-1.85-.41-2.87-.08-1.43.47-2.36,2.22-2.36,2.22"></path>
    <path class="cls-1" d="M111,5.15s1.64.69,2.1,2.07c.58,1.72.18,3.1.18,3.1,0,0-1.62-.99-2.12-1.94-.7-1.33-.16-3.24-.16-3.24"></path>
    <path class="cls-1" d="M110.92,9.4s-1.23.69-2.32.32c-1.36-.47-2.03-1.38-2.03-1.38,0,0,1.4-.54,2.24-.4,1.17.2,2.11,1.46,2.11,1.46"></path>
    <path class="cls-1" d="M101.93,21.12l-15.44,26.75h30.89l-15.44-26.75h-.01ZM101.93,23.35l13.52,23.42h-27.03l13.52-23.42h0ZM101.93,25.57l-11.59,20.08h23.18l-11.59-20.08ZM101.93,27.8l9.67,16.74h-19.33l9.67-16.74h-.01Z"></path>
    <path class="cls-1" d="M101.93,25.57l-11.59,20.08h23.18l-11.59-20.08ZM101.93,27.8l9.67,16.74h-19.33l9.67-16.74h-.01Z"></path>
    <path class="cls-1" d="M101.93,25.57l-11.59,20.08h23.18l-11.59-20.08ZM101.93,27.8l9.67,16.74h-19.33l9.67-16.74h-.01Z"></path>
    <path class="cls-1" d="M98.63,15.42l-15.44,26.75h30.89l-15.44-26.75h-.01ZM98.63,17.65l13.52,23.41h-27.04l13.52-23.41ZM98.63,19.87l-11.59,20.08h23.18s-11.59-20.08-11.59-20.08ZM98.63,22.1l9.67,16.74h-19.33l9.67-16.74h0Z"></path>
    <path class="cls-1" d="M98.63,19.87l-11.59,20.08h23.18s-11.59-20.08-11.59-20.08ZM98.63,22.1l9.67,16.74h-19.33l9.67-16.74h0Z"></path>
    <path class="cls-1" d="M105.23,15.42l-15.44,26.75h30.89l-15.44-26.75h-.01ZM105.23,17.65l13.52,23.41h-27.03l13.52-23.41h-.01ZM105.23,19.87l-11.59,20.08h23.18s-11.59-20.08-11.59-20.08ZM105.23,22.1l9.67,16.74h-19.33l9.67-16.74h0Z"></path>
    <path class="cls-1" d="M105.23,19.87l-11.59,20.08h23.18s-11.59-20.08-11.59-20.08ZM105.23,22.1l9.67,16.74h-19.33l9.67-16.74h0Z"></path>
    <path class="cls-1" d="M105.23,19.87l-11.59,20.08h23.18s-11.59-20.08-11.59-20.08ZM105.23,22.1l9.67,16.74h-19.33l9.67-16.74h0Z"></path>
  </g>
  <g>
    <path class="cls-1" d="M3.48,93.77l7.89-13.94h3.13l7.99,13.94h-3.64l-1.67-3.05h-8.84l-1.62,3.05h-3.24ZM9.72,88.21h6.11l-3.01-5.67-3.1,5.67Z"></path>
    <path class="cls-1" d="M39.57,82.32h-10.13v8.82h10.13v-3.1h-5.3v-2.37h8.45v4.8c0,1.27-.24,2.14-.71,2.6s-1.39.69-2.74.69h-9.61c-1.35,0-2.27-.23-2.74-.69-.47-.46-.71-1.33-.71-2.6v-7.35c0-1.27.24-2.13.71-2.6.47-.47,1.39-.7,2.74-.7h9.61c1.34,0,2.25.23,2.73.69.48.46.72,1.28.72,2.48v.32l-3.15.57s0-1.56,0-1.56Z"></path>
    <path class="cls-1" d="M49.58,93.77v-13.94h11.92c1.11,0,1.91.21,2.41.64s.74,1.11.74,2.06v3.27c0,.94-.25,1.63-.74,2.06s-1.3.65-2.41.65h-1.82l6.44,5.26h-4.66l-5.62-5.26h-3.07v5.26s-3.19,0-3.19,0ZM60.07,82.24h-7.29v3.88h7.29c.56,0,.95-.08,1.15-.24.21-.16.31-.45.31-.86v-1.68c0-.4-.1-.69-.31-.85-.21-.16-.59-.24-1.15-.24"></path>
    <path class="cls-1" d="M70.95,83.13c0-1.27.24-2.13.71-2.6.48-.47,1.39-.7,2.74-.7h10.26c1.35,0,2.27.23,2.74.7.48.47.71,1.33.71,2.6v7.35c0,1.27-.24,2.14-.71,2.6-.48.46-1.39.69-2.74.69h-10.26c-1.35,0-2.27-.23-2.74-.69-.47-.46-.71-1.33-.71-2.6v-7.35ZM74.19,91.15h10.69v-8.82h-10.69v8.82Z"></path>
    <path class="cls-1" d="M105.38,93.77v-13.94h2.62l6.57,8.43,6.42-8.43h2.6v13.94h-3.01v-8.61c0-.17,0-.38.03-.63s.05-.54.09-.86c-.18.36-.33.66-.46.89s-.25.42-.35.57l-5.24,6.96h-.65l-5.25-6.99c-.19-.26-.36-.51-.49-.75-.14-.23-.25-.46-.34-.68.03.29.05.55.06.79,0,.24.02.47.02.69v8.61h-2.63.01Z"></path>
    <polygon class="cls-1" points="130.41 93.77 130.41 79.83 144.68 79.83 144.68 82.21 133.66 82.21 133.66 85.32 140.1 85.32 140.1 87.69 133.66 87.69 133.66 91.15 144.81 91.15 144.81 93.77 130.41 93.77"></polygon>
    <polygon class="cls-1" points="157.29 82.32 157.29 93.77 154.05 93.77 154.05 82.32 147.65 82.32 147.65 79.83 163.71 79.83 163.71 82.32 157.29 82.32"></polygon>
    <path class="cls-1" d="M163.19,93.77l7.89-13.94h3.13l7.99,13.94h-3.64l-1.68-3.05h-8.84l-1.62,3.05h-3.23ZM169.42,88.21h6.11l-3.01-5.67-3.1,5.67Z"></path>
    <polygon class="cls-1" points="186.67 93.77 186.67 79.83 189.92 79.83 189.92 91.15 200.38 91.15 200.38 93.77 186.67 93.77"></polygon>
    <path class="cls-1" d="M24.7,103.81l.89,3.42.34,1.37c.08-.35.15-.68.22-1s.14-.64.21-.97l.65-2.83h1l-1.57,5.96h-1.02l-1.28-4.95-1.26,4.95h-1.01l-1.58-5.96h1.01l.65,2.83c.08.33.15.65.22.98.07.33.14.65.22.98l1.24-4.79h1.07Z"></path>
    <polygon class="cls-1" points="33.8 109.77 32.81 109.77 32.81 107.05 30.01 107.05 30.01 109.77 29.02 109.77 29.02 103.81 30.01 103.81 30.01 106.19 32.81 106.19 32.81 103.81 33.8 103.81 33.8 109.77"></polygon>
    <polygon class="cls-1" points="39.85 109.77 35.34 109.77 35.34 103.81 39.71 103.81 39.71 104.66 36.34 104.66 36.34 106.27 39.5 106.27 39.5 107.14 36.34 107.14 36.34 108.91 39.85 108.91 39.85 109.77"></polygon>
    <path class="cls-1" d="M46.22,109.77h-1.08l-.54-1.52c-.11-.3-.26-.53-.44-.68-.19-.15-.44-.23-.75-.23h-1.26v2.43h-.99v-5.96h2.64c.32,0,.61.03.88.08.27.06.5.15.69.28.19.13.34.3.45.52s.16.48.16.8c0,.42-.11.76-.34,1.02-.23.26-.55.44-.96.51.22.08.4.22.55.41s.28.43.39.74l.6,1.59h0ZM42.15,106.49h1.55c.22,0,.41-.02.57-.05s.29-.09.39-.17c.1-.08.18-.17.22-.3.05-.12.07-.27.07-.44,0-.31-.09-.54-.28-.7-.19-.15-.48-.23-.87-.23h-1.65v1.88h0Z"></path>
    <polygon class="cls-1" points="51.94 109.77 47.43 109.77 47.43 103.81 51.8 103.81 51.8 104.66 48.43 104.66 48.43 106.27 51.59 106.27 51.59 107.14 48.43 107.14 48.43 108.91 51.94 108.91 51.94 109.77"></polygon>
    <polygon class="cls-1" points="61.3 104.67 59.42 104.67 59.42 109.77 58.43 109.77 58.43 104.67 56.56 104.67 56.56 103.81 61.3 103.81 61.3 104.67"></polygon>
    <path class="cls-1" d="M67.43,109.77h-1.08l-.54-1.52c-.11-.3-.26-.53-.44-.68-.19-.15-.44-.23-.75-.23h-1.26v2.43h-.99v-5.96h2.65c.32,0,.61.03.88.08.27.06.49.15.69.28s.34.3.45.52.16.48.16.8c0,.42-.11.76-.34,1.02-.23.26-.55.44-.96.51.22.08.4.22.55.41.15.19.28.43.39.74l.6,1.59h-.01ZM63.36,106.49h1.55c.22,0,.41-.02.57-.05s.29-.09.39-.17c.1-.08.18-.17.23-.3.05-.12.07-.27.07-.44,0-.31-.09-.54-.28-.7-.19-.15-.48-.23-.87-.23h-1.65v1.88h-.01Z"></path>
    <path class="cls-1" d="M71.03,109.87c-.35,0-.65-.03-.9-.1s-.47-.15-.65-.26c-.18-.11-.32-.25-.43-.41-.11-.16-.2-.34-.26-.53s-.1-.4-.12-.62c-.02-.22-.03-.45-.03-.69v-3.45h.99v3.45c0,.32.03.6.08.82s.14.4.26.54c.11.14.26.23.43.29.18.06.38.09.63.09s.43-.03.61-.08c.17-.05.32-.15.44-.28.12-.13.21-.31.26-.54.06-.22.09-.51.09-.85v-3.45h.99v3.45c0,.21,0,.42-.02.63-.02.21-.05.41-.11.6-.05.19-.13.38-.24.54-.1.17-.25.31-.42.44-.18.12-.4.22-.65.29-.26.07-.57.11-.94.11"></path>
    <path class="cls-1" d="M77.23,109.87c-.41,0-.77-.05-1.08-.14s-.57-.23-.79-.4c-.21-.18-.38-.39-.5-.64s-.18-.54-.19-.86h.95c.02.2.07.37.16.52s.21.28.35.38c.14.1.31.18.49.23.19.05.39.08.6.08s.39-.02.56-.06.31-.11.44-.19c.12-.08.21-.18.28-.29.07-.11.1-.24.1-.38,0-.15-.03-.28-.1-.38-.07-.1-.18-.19-.33-.27-.15-.08-.35-.15-.58-.21-.24-.06-.52-.13-.85-.2-.31-.07-.59-.15-.82-.25-.23-.1-.42-.21-.58-.35-.15-.13-.27-.29-.34-.46-.07-.17-.11-.38-.11-.6,0-.25.05-.48.16-.69s.26-.38.45-.53.43-.26.7-.34.58-.12.91-.12.66.04.94.12c.28.08.52.2.72.35.2.15.36.35.47.57.11.23.18.48.19.77h-.96c-.07-.65-.52-.98-1.35-.98-.2,0-.37.02-.53.06s-.29.1-.4.17-.19.16-.25.26-.09.21-.09.33c0,.1.02.19.07.26.04.08.12.15.22.22s.24.13.4.19c.17.06.37.12.62.17.21.05.42.1.63.15.2.05.39.11.57.17.18.06.34.14.49.22.15.08.28.19.38.31s.19.26.25.42.09.35.09.57c0,.27-.06.52-.17.74-.12.22-.28.41-.48.57-.21.16-.45.28-.74.37-.29.09-.6.13-.94.13"></path>
    <polygon class="cls-1" points="85.14 104.67 83.26 104.67 83.26 109.77 82.27 109.77 82.27 104.67 80.4 104.67 80.4 103.81 85.14 103.81 85.14 104.67"></polygon>
    <rect class="cls-1" x="90.07" y="103.81" width=".99" height="5.96"></rect>
    <path class="cls-1" d="M94.94,109.87c-.41,0-.77-.05-1.08-.14s-.57-.23-.79-.4c-.21-.18-.38-.39-.5-.64s-.18-.54-.19-.86h.94c.02.2.07.37.16.52s.21.28.35.38c.14.1.31.18.49.23.19.05.39.08.6.08s.39-.02.56-.06.32-.11.44-.19c.12-.08.21-.18.28-.29.07-.11.1-.24.1-.38,0-.15-.04-.28-.1-.38-.07-.1-.18-.19-.33-.27-.15-.08-.35-.15-.58-.21-.24-.06-.52-.13-.86-.2-.31-.07-.59-.15-.82-.25-.23-.1-.42-.21-.57-.35-.15-.13-.27-.29-.34-.46-.07-.17-.11-.38-.11-.6,0-.25.05-.48.16-.69.1-.21.26-.38.45-.53.2-.15.43-.26.7-.34s.58-.12.91-.12.66.04.94.12c.28.08.52.2.72.35.2.15.36.35.47.57.11.23.18.48.19.77h-.96c-.07-.65-.52-.98-1.35-.98-.2,0-.37.02-.53.06s-.29.1-.4.17-.19.16-.25.26-.09.21-.09.33c0,.1.02.19.07.26.04.08.12.15.22.22s.24.13.4.19c.17.06.37.12.62.17.21.05.42.1.63.15s.4.11.57.17.34.14.49.22c.15.08.28.19.38.31.11.12.19.26.25.42s.09.35.09.57c0,.27-.06.52-.17.74-.12.22-.28.41-.48.57-.21.16-.45.28-.74.37-.29.09-.6.13-.94.13"></path>
    <polygon class="cls-1" points="106.62 104.67 104.74 104.67 104.74 109.77 103.75 109.77 103.75 104.67 101.88 104.67 101.88 103.81 106.62 103.81 106.62 104.67"></polygon>
    <polygon class="cls-1" points="112.48 109.77 111.49 109.77 111.49 107.05 108.69 107.05 108.69 109.77 107.7 109.77 107.7 103.81 108.69 103.81 108.69 106.19 111.49 106.19 111.49 103.81 112.48 103.81 112.48 109.77"></polygon>
    <polygon class="cls-1" points="118.53 109.77 114.02 109.77 114.02 103.81 118.39 103.81 118.39 104.66 115.02 104.66 115.02 106.27 118.18 106.27 118.18 107.14 115.02 107.14 115.02 108.91 118.53 108.91 118.53 109.77"></polygon>
    <path class="cls-1" d="M126.15,109.87c-.42,0-.8-.07-1.14-.2-.34-.14-.63-.34-.88-.62-.26-.28-.45-.61-.57-.98s-.18-.8-.18-1.28c0-.94.25-1.69.76-2.25.26-.28.55-.49.89-.62.34-.13.72-.2,1.14-.2.33,0,.63.04.91.12s.53.21.76.38c.26.19.45.41.58.65s.21.52.24.83h-1.01c-.02-.18-.07-.33-.15-.48-.08-.14-.18-.26-.31-.36-.13-.1-.28-.18-.45-.23s-.36-.08-.57-.08c-.27,0-.51.05-.73.15-.22.1-.41.24-.56.44-.15.19-.27.43-.35.7-.08.28-.13.6-.13.95s.04.68.12.95c.08.28.2.51.35.7.15.19.34.34.55.44s.46.15.73.15c.21,0,.41-.03.58-.08.17-.05.32-.13.45-.24s.23-.23.31-.38.13-.33.15-.52h1c-.06.66-.32,1.17-.77,1.53-.44.36-1.01.53-1.71.53"></path>
    <path class="cls-1" d="M132.55,103.71c.42,0,.81.07,1.16.22s.65.35.9.62.45.59.58.97c.14.38.21.8.21,1.26s-.07.88-.2,1.26-.33.7-.57.97c-.25.27-.55.48-.9.63-.35.15-.74.22-1.17.22s-.82-.07-1.17-.22c-.35-.15-.65-.35-.9-.62s-.44-.6-.58-.97c-.13-.38-.2-.8-.2-1.26s.07-.88.21-1.26.33-.7.59-.97c.25-.27.55-.48.9-.62.35-.15.73-.22,1.16-.22M132.53,109.03c.28,0,.53-.05.76-.16s.42-.26.58-.45c.16-.2.29-.43.37-.71.09-.28.13-.58.13-.92s-.04-.64-.13-.91-.21-.51-.37-.71c-.16-.2-.35-.35-.58-.46s-.48-.16-.76-.16-.53.05-.76.16-.42.26-.59.46c-.16.2-.29.43-.38.71s-.13.58-.13.92.04.65.13.92c.09.28.21.51.38.71.16.2.35.35.58.45.23.1.48.16.75.16"></path>
    <path class="cls-1" d="M142.59,109.77h-.93v-4.91l-1.57,4.91h-.89l-1.6-4.91c0,.33,0,.67,0,1v3.91h-.94v-5.96h1.44l1.53,4.72,1.49-4.72h1.45v5.96h.01Z"></path>
    <path class="cls-1" d="M150.03,109.77h-.93v-4.91l-1.57,4.91h-.89l-1.6-4.91c0,.33,0,.67,0,1v3.91h-.94v-5.96h1.44l1.53,4.72,1.49-4.72h1.45v5.96h.01Z"></path>
    <rect class="cls-1" x="151.66" y="103.81" width=".99" height="5.96"></rect>
    <polygon class="cls-1" points="158.55 104.67 156.66 104.67 156.66 109.77 155.67 109.77 155.67 104.67 153.8 104.67 153.8 103.81 158.55 103.81 158.55 104.67"></polygon>
    <path class="cls-1" d="M165.52,109.77h-.93v-4.91l-1.57,4.91h-.89l-1.6-4.91c0,.33,0,.67,0,1v3.91h-.93v-5.96h1.44l1.53,4.72,1.48-4.72h1.45v5.96h.01Z"></path>
    <polygon class="cls-1" points="171.57 109.77 167.07 109.77 167.07 103.81 171.43 103.81 171.43 104.66 168.06 104.66 168.06 106.27 171.22 106.27 171.22 107.14 168.06 107.14 168.06 108.91 171.57 108.91 171.57 109.77"></polygon>
    <path class="cls-1" d="M177.66,109.77h-1l-2.86-4.47c0,.44,0,.87,0,1.3v3.17h-.94v-5.96h1.01l2.85,4.47v-4.47h.93v5.96h0Z"></path>
    <polygon class="cls-1" points="183.49 104.67 181.61 104.67 181.61 109.77 180.62 109.77 180.62 104.67 178.75 104.67 178.75 103.81 183.49 103.81 183.49 104.67"></polygon>
  </g>
</svg>
